<svg xmlns="http://www.w3.org/2000/svg" viewBox="0 0 122 100">
  <rect width="122" height="100" fill="#D3C175" rx="16"/>
  <path d="M60.1367 5.30905C61.1504 3.93309 62.5843 6.33913 63.4551 6.94284C64.2502 8.00415 72.2749 17.9078 75.039 21.894C76.1554 23.6782 77.6781 23.9406 79.6562 23.7231C89.5205 23.2215 99.3624 22.2094 109.218 21.3881C121.503 19.2929 118.105 22.4932 119.529 32.1128L119.52 32.1098C119.525 32.112 119.53 32.1145 119.534 32.1167C120.392 42.6862 121.133 53.1855 121.352 63.7817C121.365 67.4822 121.646 74.8009 121.815 74.7993C121.829 78.3239 121.749 81.8577 121.968 85.3735C122.182 88.1433 121.436 89.453 118.479 89.6128C111.636 90.2252 104.85 91.3113 97.9795 91.6889C97.9789 91.6967 97.9791 91.7046 97.9785 91.7124L97.9736 91.6899C92.0123 91.7343 86.1939 93.1591 80.2236 93.3501C77.9194 93.6697 74.7212 93.8743 73.1269 91.8012C71.39 93.6743 70.805 94.1492 68.416 94.4067C65.3883 94.7308 61.3203 95.0421 58.2793 95.2729C57.7836 95.304 36.0906 96.9857 33.8525 97.3852C31.2536 97.6072 28.6546 97.8428 26.0556 98.0825C19.3663 99.0724 12.5204 98.6105 5.92479 100.004C5.96323 99.8716 0.505804 100 0.467754 99.938C0.284686 99.5829 0.0884746 99.1878 0.0839652 98.8061C0.0393093 95.0684 -0.0726056 91.326 0.0702933 87.5971C-0.00115224 79.3271 0.458685 70.9545 1.42772 62.7378C1.61535 61.6183 2.23184 56.4656 2.23631 55.063C2.17379 52.0665 2.75001 52.3774 5.50975 51.1655C4.69254 50.3087 2.82098 49.7002 2.8701 48.2885C3.13799 46.8815 3.2898 45.4078 3.86131 44.1206C4.74548 42.1141 5.63911 32.9919 5.94725 30.1108C6.33126 26.5376 11.7513 28.0991 13.2969 27.771C22.0627 26.9275 30.9808 25.9736 39.7422 25.8315C43.7835 19.9142 47.102 13.4018 52.1035 8.20358C52.4339 7.94191 53.3435 7.79103 53.3847 7.87057C53.6482 8.43878 54.0857 9.27387 53.8535 9.66452C53.2745 10.4137 44.5602 20.6698 43.2431 25.4321C44.2402 25.4704 44.9543 25.4112 45.5185 25.3911C45.5165 25.3855 45.5137 25.3801 45.5117 25.3745C48.1016 25.299 51.951 25.4225 54.291 25.103C60.7705 24.5614 67.3175 24.7705 73.7256 23.7895C69.7824 18.2894 61.311 8.36312 61.1592 8.22995C60.2394 7.52855 59.4714 6.42312 60.1367 5.30905Z" fill="#1a1a1a"/>
</svg>
