<svg xmlns="http://www.w3.org/2000/svg" viewBox="0 0 122.002 100.004" role="img" aria-label="Abere Selezione">
  <path d="M60.1367 5.30905C61.1504 3.93309 62.5843 6.33913 63.4551 6.94284C64.2502 8.00415 72.2749 17.9078 75.039 21.894C76.1554 23.6782 77.6781 23.9406 79.6562 23.7231C89.5205 23.2215 99.3624 22.2094 109.218 21.3881C121.503 19.2929 118.105 22.4932 119.529 32.1128L119.52 32.1098C119.525 32.112 119.53 32.1145 119.534 32.1167C120.392 42.6862 121.133 53.1855 121.352 63.7817C121.365 67.4822 121.646 74.8009 121.815 74.7993C121.829 78.3239 121.749 81.8577 121.968 85.3735C122.182 88.1433 121.436 89.453 118.479 89.6128C111.636 90.2252 104.85 91.3113 97.9795 91.6889C97.9789 91.6967 97.9791 91.7046 97.9785 91.7124L97.9736 91.6899C92.0123 91.7343 86.1939 93.1591 80.2236 93.3501C77.9194 93.6697 74.7212 93.8743 73.1269 91.8012C71.39 93.6743 70.805 94.1492 68.416 94.4067C65.3883 94.7308 61.3203 95.0421 58.2793 95.2729C57.7836 95.304 36.0906 96.9857 33.8525 97.3852C31.2536 97.6072 28.6546 97.8428 26.0556 98.0825C19.3663 99.0724 12.5204 98.6105 5.92479 100.004C5.96323 99.8716 0.505804 100 0.467754 99.938C0.284686 99.5829 0.0884746 99.1878 0.0839652 98.8061C0.0393093 95.0684 -0.0726056 91.326 0.0702933 87.5971C-0.00115224 79.3271 0.458685 70.9545 1.42772 62.7378C1.61535 61.6183 2.23184 56.4656 2.23631 55.063C2.17379 52.0665 2.75001 52.3774 5.50975 51.1655C4.69254 50.3087 2.82098 49.7002 2.8701 48.2885C3.13799 46.8815 3.2898 45.4078 3.86131 44.1206C4.74548 42.1141 5.63911 32.9919 5.94725 30.1108C6.33126 26.5376 11.7513 28.0991 13.2969 27.771C22.0627 26.9275 30.9808 25.9736 39.7422 25.8315C43.7835 19.9142 47.102 13.4018 52.1035 8.20358C52.4339 7.94191 53.3435 7.79103 53.3847 7.87057C53.6482 8.43878 54.0857 9.27387 53.8535 9.66452C53.2745 10.4137 44.5602 20.6698 43.2431 25.4321C44.2402 25.4704 44.9543 25.4112 45.5185 25.3911C45.5165 25.3855 45.5137 25.3801 45.5117 25.3745C48.1016 25.299 51.951 25.4225 54.291 25.103C60.7705 24.5614 67.3175 24.7705 73.7256 23.7895C69.7824 18.2894 61.311 8.36312 61.1592 8.22995C60.2394 7.52855 59.4714 6.42312 60.1367 5.30905ZM115.041 23.0971C102.823 24.6508 90.623 25.6405 78.3115 26.2798C79.9057 29.2451 81.3168 31.589 82.6074 34.3413C83.17 35.5398 81.032 36.2097 80.4424 35.1801C79.0893 32.8097 77.4631 28.6991 74.9355 26.5151C66.2265 26.9458 57.4587 27.0304 48.7666 27.6635C48.7698 27.6684 48.7731 27.6733 48.7763 27.6782C39.8722 28.2331 41.752 27.1987 37.8047 35.1176C37.4252 35.9077 36.8223 36.2364 36.0722 35.9126C33.8261 34.8294 38.0722 30.2125 38.3847 28.4458C37.0111 28.0865 15.5829 29.8974 9.82713 30.3901C7.72443 30.3638 7.98794 32.8537 7.88084 33.8393C7.4834 37.5327 4.12495 47.9738 6.12107 48.5864C7.41161 49.2656 10.9257 50.9966 9.17576 52.6079C7.85841 53.6422 5.02697 52.7679 4.80369 54.77C4.26783 59.0936 3.45472 63.3772 3.29393 67.7407C3.25374 68.1402 2.89749 71.2652 2.99119 72.4506C3.08943 73.6536 2.74509 74.8881 2.77635 76.1089C2.50395 83.309 2.4863 90.3761 2.51756 97.6118C14.7711 96.7018 27.0471 95.1658 39.3096 94.7485C41.5252 94.3534 57.1852 92.9548 57.7568 92.8794C61.8517 92.3644 65.7596 91.659 69.8232 91.8188C70.4216 90.0033 71.5068 88.5075 72.1543 86.8784C72.2346 86.6698 73.0597 86.6034 73.4707 86.7231C73.7475 86.803 74.038 87.3086 74.0693 87.646C74.6677 91.7032 77.6419 91.2017 80.7275 90.851C86.3993 90.5592 91.812 89.8383 97.4824 89.3022C97.4824 89.2931 97.4822 89.2837 97.4824 89.2749C99.867 89.0574 102.538 88.7915 104.895 88.645C106.57 88.5828 112.438 87.801 113.72 87.5835C115.256 87.3216 116.805 87.0648 118.354 87.0249C119.158 87.0027 119.516 86.9975 119.489 86.0786C119.244 80.1392 119.971 74.191 119.217 68.2827C119.538 62.028 118.619 55.8484 118.364 49.5981C118.212 46.3355 118.154 43.0686 117.854 39.8149C117.657 37.7009 117.429 35.5915 117.213 33.4799L117.002 31.3667C116.698 29.7288 116.734 27.8069 116.528 26.1557C116.488 24.6464 116.738 23.3457 115.041 23.0971ZM24.8545 43.8803C25.5464 43.4855 26.0426 43.5742 26.5605 44.1733C27.2125 44.9235 27.6633 45.8076 27.7705 46.7798C27.8911 47.9338 28.1006 49.0616 28.4355 50.1714C28.5515 50.5619 28.565 50.9834 28.623 51.3872C28.7347 52.1684 28.8468 52.9497 28.9629 53.7309C29.1147 54.7697 29.2933 55.8088 29.4228 56.852C29.5523 57.864 29.637 58.8849 29.7441 59.9057C30.0431 60.0388 30.2976 60.1321 30.5342 60.2563C31.0522 60.5315 31.2309 60.9314 31.0166 61.4907C30.8603 61.8902 30.6414 62.2808 30.3779 62.6137C30.1145 62.9422 30.1322 63.2801 30.1679 63.6352C30.2885 64.8691 30.4093 66.103 30.5566 67.3325C30.6281 67.9051 30.7619 68.4691 30.8691 69.0151C31.6595 68.8908 32.4417 68.7708 33.2812 68.6421C33.2768 68.5533 33.2677 68.4027 33.2588 68.2475C33.1516 66.5963 33.0437 64.9447 32.9365 63.2934C32.9276 63.1558 32.897 62.9913 32.9551 62.8803C33.2989 62.2233 33.1243 61.5214 33.1689 60.8423C33.2359 59.7948 33.3617 58.7515 33.4599 57.7085C33.4912 57.3624 33.518 57.0162 33.5537 56.5327C33.2235 56.648 32.9998 56.714 32.79 56.8071C32.2318 57.0512 31.6602 57.0024 31.3164 56.6606C30.977 56.3232 30.9188 55.8574 31.2314 55.2758C31.6467 54.4947 32.0485 53.7138 33.0263 53.4253C33.5488 53.2743 33.9017 52.8742 33.9687 52.2661C34.0402 51.6093 34.1826 50.9614 34.2763 50.309C34.3746 49.6077 34.5539 48.95 35.1523 48.4839C35.8086 47.9738 36.5857 48.2046 36.751 49.0122C36.8269 49.3806 36.7599 49.7764 36.751 50.1626C36.7376 50.5353 36.7059 50.9128 36.6836 51.2944L36.6924 51.2856C36.8708 51.2945 36.9602 51.3204 37.0361 51.2983C37.9873 51.0364 38.9255 50.6723 39.8945 50.5258C40.926 50.3661 41.9887 50.4066 43.0381 50.3667C44.5162 50.3045 45.2178 51.3608 45.9189 52.3862C46.0662 52.5992 46.1375 52.9189 46.1152 53.1762C46.0348 54.095 46.0256 55.0361 45.3828 55.8217C45.0389 56.2435 44.7976 56.7543 44.4717 57.1938C44.1546 57.6288 43.7881 58.028 43.3506 58.5561C43.6407 58.6138 43.8016 58.6767 43.9668 58.6723C44.6052 58.6546 45.2439 58.5789 45.8779 58.601C46.7487 58.6277 47.5843 58.8495 48.3613 59.3911C48.9729 58.7786 48.9463 58.0551 48.9775 57.2563C48.7007 57.3185 48.5171 57.3673 48.334 57.4028C47.7002 57.5312 47.2046 57.1715 47.2178 56.5327C47.2267 56.1864 47.3564 55.8353 47.4814 55.5024C47.6109 55.1562 47.8923 55.005 48.2451 54.8452C48.7273 54.6276 49.0896 54.1977 49.6611 54.0512C49.8976 53.9887 50.0452 53.4821 50.1836 53.1538C50.6881 51.9864 51.1748 50.8099 51.666 49.6381C51.8134 49.2876 52.0457 49.0254 52.4297 48.9233C53.394 48.6705 53.9566 49.075 53.9834 50.0737C53.9923 50.4287 53.9249 50.7885 53.8535 51.1391C53.7776 51.5117 53.6619 51.8755 53.5459 52.2924C54.1665 52.3812 54.6849 52.1598 55.1894 51.9956C56.185 51.6716 57.136 51.1835 58.1494 50.9438C59.3015 50.6686 60.4007 50.1004 61.6377 50.2114C62.0841 50.2513 62.5308 50.2557 62.8388 50.6684C63.2093 51.1567 63.2184 51.7295 62.8076 52.1733C62.6603 52.3331 62.4859 52.5015 62.2939 52.5903C61.517 52.9454 60.7311 53.274 59.9453 53.6069C59.7668 53.6823 59.5746 53.7225 59.3916 53.7934C58.1055 54.295 56.8146 54.7522 55.4482 55.0141C54.7203 55.1517 54.0146 55.4135 53.3135 55.6577C52.4605 55.9595 52.452 56.0042 52.4609 57.0385C53.1529 57.0961 53.7778 56.8604 54.3359 56.5053C55.2112 55.946 56.1315 55.5648 57.1631 55.3784C57.864 55.2496 58.5335 54.9382 59.2256 54.7651C59.5962 54.6719 60.0032 54.7301 60.3828 54.6635C61.4588 54.4684 61.8423 55.3603 61.4717 56.2924C61.3421 56.6165 60.9854 56.892 60.6728 57.0962C60.2263 57.3891 59.7308 57.6114 59.2441 57.8423C58.7484 58.082 58.2475 58.3217 57.7295 58.5171C56.4659 58.9875 55.1934 59.4404 53.9209 59.8842C53.3494 60.0839 52.7645 60.2567 52.1797 60.4165C51.6751 60.5496 51.4064 60.9583 51.3349 61.3667C51.0938 62.7738 50.9423 64.1992 50.7637 65.6196C50.7549 65.6949 50.7953 65.7792 50.8398 65.9653C51.4917 65.7079 52.126 65.4813 52.7422 65.2016C53.3448 64.9264 53.894 64.4964 54.5234 64.3188C55.5684 64.0214 56.3773 63.204 57.4892 63.062C58.0294 62.9909 58.5474 62.7556 59.0742 62.5825C60.5433 62.0987 62.0532 61.8943 63.5937 61.8676C63.7008 61.8675 63.8078 61.81 63.9951 61.7524C64.2496 60.7759 64.5133 59.7639 64.7812 58.7563C65.0491 57.7487 65.3032 56.7365 65.6113 55.7378C65.7944 55.1474 65.9108 54.6099 65.7187 53.9751C65.4956 53.2427 65.7373 52.5232 66.3535 52.0483C67.0274 51.529 67.4245 50.8634 67.6924 50.0913C67.7817 49.8338 67.898 49.5716 68.0498 49.3452C68.3847 48.8569 68.9251 48.6399 69.4297 48.8042C69.9252 48.9639 70.2113 49.3096 70.207 49.8598C70.207 49.9353 70.2518 50.0156 70.292 50.1577C70.8099 50.1089 71.3278 50.0467 71.8457 50.0112C72.9799 49.9357 74.0118 50.0998 75.0166 50.7612C75.6641 51.1873 76.3425 51.5386 76.8828 52.1157C77.9589 53.2654 78.4368 54.5751 78.0215 56.1421C77.7847 57.0341 77.2039 57.7044 76.4404 58.1128C75.9405 58.3791 75.6098 58.8228 75.1142 59.0669C74.5517 59.342 73.9937 59.6307 73.2705 59.9946C74.3555 60.5805 75.4003 60.869 76.4228 61.2241C77.4588 61.5836 78.4769 61.9926 79.5351 62.3921C80.2318 61.4021 80.1695 60.2786 80.625 59.2798C80.3483 59.2487 80.1341 59.2046 79.9199 59.2046C79.3975 59.2046 78.9948 59.0096 78.7715 58.5258C78.6152 58.1885 78.8615 57.4686 79.1562 57.0913C79.5805 56.5589 80.1923 56.4527 80.7861 56.395C81.4424 56.3328 81.8442 56.1105 82.0586 55.4448C82.2774 54.77 82.6346 54.1438 82.9785 53.3891C82.6525 53.3891 82.4202 53.398 82.1836 53.3891C81.6254 53.3669 81.0939 53.0341 80.9912 52.6479C80.8618 52.1729 81.1659 51.5564 81.6972 51.2856C82.559 50.8462 83.4341 50.437 84.2959 49.9975C84.5101 49.8865 84.6935 49.7096 84.8721 49.5454C85.4392 49.0216 85.9705 48.9594 86.6894 49.3012C86.8948 49.3988 87.167 49.4471 87.3857 49.4028C89.1184 49.0654 90.8424 48.666 92.584 48.3686C93.3163 48.2443 94.0847 48.3065 94.8349 48.3198C95.2456 48.3287 95.6562 48.4352 96.0713 48.4663C96.9331 48.5329 97.7064 48.7771 98.2959 49.5229C98.2244 50.1754 97.6123 50.3396 97.1523 50.5571C96.1209 51.0498 95.0133 51.307 93.8613 51.4135C92.3475 51.5556 90.829 51.7068 89.3242 51.9243C88.3686 52.0619 87.4263 52.3241 86.5019 52.5239C86.167 53.3362 85.836 54.1353 85.4922 54.9565C85.6841 55.1207 85.8273 55.2405 85.9746 55.3647C86.3094 55.2538 86.6445 55.1027 86.9883 55.0405C88.5914 54.7386 90.1994 54.437 91.8115 54.1928C92.2893 54.1219 92.8028 54.2146 93.2939 54.2856C93.8164 54.3611 93.9723 54.8102 94.1152 55.2319C94.2714 55.689 94.1022 56.075 93.7451 56.3413C92.7717 57.0648 91.7177 57.606 90.4541 57.5883C90.2711 57.5883 90.0834 57.5974 89.9004 57.6284C89.3021 57.726 88.708 57.8417 88.1142 57.9438C87.949 57.9704 87.77 57.9525 87.6181 58.0102C86.6759 58.3831 85.7025 58.539 84.6933 58.5434C84.3049 58.5434 84.2024 58.8318 84.1221 59.1469C83.8854 60.0568 83.6392 60.9622 83.3847 61.8676C83.291 62.2094 83.1617 62.5383 83.0322 62.9155C83.1482 62.9244 83.2642 62.969 83.3535 62.938C84.6307 62.4497 85.9798 62.2673 87.3105 61.9965C88.1231 61.8279 88.9267 61.5969 89.7392 61.4194C90.1634 61.3262 90.6011 61.2468 91.0342 61.2202C91.5565 61.1847 92.0835 61.2108 92.6103 61.2153C93.1998 61.2153 93.7763 61.2692 94.2988 61.5932C94.8523 61.935 94.937 62.3035 94.4726 62.7163C93.8119 63.3021 93.1332 63.8258 92.1689 63.9546C91.3429 64.0611 90.5657 64.4785 89.7441 64.6694C88.534 64.9491 87.2966 65.1218 86.082 65.3881C85.3542 65.5479 84.6487 65.8235 83.9209 65.9878C82.9207 66.2141 81.9203 66.4402 80.9023 66.56C80.237 66.6399 79.7675 66.1387 79.4013 65.646C79.2138 65.3974 79.0126 65.3173 78.7402 65.2241C77.1104 64.687 75.4985 64.0966 73.8642 63.5639C73.0738 63.3065 72.2654 63.0754 71.4482 62.9555C70.0283 62.7513 68.6799 62.3828 67.3984 61.7348C67.3136 61.6904 67.1835 61.7309 66.9736 61.7309C66.9736 62.0903 67.0139 62.4367 66.9648 62.7651C66.88 63.3332 66.7323 63.888 66.6162 64.4516C66.5269 64.8733 66.4694 65.3039 66.3623 65.7212C66.2685 66.0807 66.1159 66.4276 66.0088 66.7827C65.9374 67.0133 65.8843 67.2488 65.8486 67.4839C65.7325 68.2339 65.46 68.913 64.9199 69.4633C64.1027 70.2935 63.392 69.8671 62.9053 69.0503C62.6688 68.6508 62.6201 68.0823 62.6513 67.603C62.6872 67.0127 62.9013 66.431 63.0263 65.8452C63.196 65.0463 63.3571 64.2476 63.5312 63.3911C63.3349 63.4133 63.2273 63.3908 63.1826 63.435C61.7894 64.7312 60.0924 65.4725 58.333 66.1206C57.7347 66.3381 57.1718 66.6975 56.5556 66.813C55.7831 66.9594 55.207 67.4438 54.5283 67.7368C53.8407 68.0342 53.1483 68.2824 52.541 68.7573C52.1168 69.0946 51.5676 69.2726 51.0898 69.5522C50.6612 69.8008 50.2591 70.1024 49.8349 70.3598C48.8213 70.9724 47.4815 70.5245 46.9902 69.477C46.8161 69.1087 46.9012 68.7845 46.9414 68.4428C47.0486 67.5151 47.1643 66.5864 47.2715 65.6587C47.2756 65.6144 47.2354 65.5656 47.1953 65.4682C46.2397 66.0541 45.3063 66.6624 44.3418 67.2173C42.9174 68.0384 41.6001 69.0457 39.9883 69.5473C39.314 69.756 38.7068 70.1785 38.0459 70.436C37.1663 70.7778 36.273 71.0837 35.3711 71.3501C34.6432 71.5631 33.8927 71.7233 33.1426 71.852C32.5442 71.9541 31.9368 71.9763 31.2402 72.0473C31.4054 73.2324 31.5838 74.4396 31.749 75.6557C31.8562 76.477 31.9772 77.2988 32.0263 78.1245C32.0619 78.7501 31.7134 79.1673 31.1377 79.3803C30.7224 79.5313 30.1993 79.3582 29.8242 78.8921C29.6144 78.6347 29.3781 78.3506 29.3066 78.0444C29.1101 77.201 28.5158 76.4459 28.7168 75.5092C28.7345 75.4338 28.6943 75.3409 28.6631 75.27C28.0513 73.9517 28.1413 72.5045 27.9092 71.1196C27.7886 70.4182 27.7481 69.7073 27.6543 69.0014C27.6096 68.651 27.4932 68.3094 27.4619 67.9633C27.4217 67.5328 27.4484 67.0927 27.4082 66.6577C27.3546 66.0985 27.2659 65.5392 27.1855 64.9311C25.9576 65.2995 24.9796 65.8279 24.1133 66.5825C23.6578 66.9776 23.1569 67.2972 22.6211 67.5991C21.2235 68.3848 19.8707 69.264 18.5713 70.2094C17.8881 70.7066 17.5352 71.4748 17.7451 72.3803C17.7673 72.4778 17.7541 72.5885 17.7363 72.686C17.4505 74.4482 17.1825 76.2062 17.2226 77.9995C17.2316 78.3546 17.0975 78.7102 17.0752 79.0698C17.0395 79.6779 16.9944 80.2904 17.039 80.894C17.0971 81.6752 17.0616 82.4343 16.8965 83.1977C16.7446 83.9169 16.5034 84.2323 15.9541 84.2856C15.3781 84.3387 14.6417 83.8991 14.539 83.3354C14.3381 82.2213 14.0025 81.0759 14.0918 79.9751C14.2123 78.488 14.0382 77.005 14.2168 75.5268C14.2972 74.8788 14.5922 74.2398 14.3467 73.5874C13.9894 73.543 13.6318 73.5434 13.2969 73.4458C12.7121 73.2815 12.4756 72.8944 12.6006 72.313C12.7569 71.6028 13.0563 70.9549 13.6367 70.4712C13.8287 70.3113 14.0121 70.1427 14.2041 69.9829C14.9989 69.3259 15.3118 68.5001 15.4189 67.4614C15.535 66.3606 15.6329 65.2242 16.1553 64.1811C16.3919 63.7017 16.3835 63.1069 16.5263 62.5698C16.9863 60.8298 17.4279 59.085 17.9414 57.3628C18.245 56.3373 18.6782 55.347 19.0488 54.3393C19.5579 52.95 19.951 51.4985 20.6074 50.1801C21.2638 48.8573 21.599 47.3613 22.6572 46.2426C22.7688 46.1229 22.8621 45.9673 22.9023 45.812C23.1703 44.7821 24.0417 44.3509 24.8545 43.8803ZM98.6523 67.5903C99.4516 67.5592 100.229 68.5578 100.037 69.4145C99.7959 70.4843 99.4745 71.5323 99.2021 72.5932C99.0726 73.0992 98.7152 73.4012 98.2597 73.561C97.1568 73.9516 96.2723 73.285 96.3125 72.0776C96.3259 71.6427 96.4418 71.2077 96.54 70.7817C96.6606 70.2757 96.7996 69.7695 96.9648 69.2768C97.2104 68.5623 97.5184 67.8788 98.3486 67.6479C98.4558 67.6168 98.568 67.6036 98.6484 67.5903H98.6523ZM45.2304 61.8589C44.0027 61.5749 42.8106 61.8632 41.623 62.1118C41.1363 62.2139 40.6893 62.4629 40.207 62.6049C39.9301 62.6849 39.6039 62.6313 39.3359 62.729C38.5099 63.0264 37.6883 63.3415 36.8935 63.7143C36.523 63.8874 35.9825 63.99 35.9912 64.5756C36.0046 65.5656 36.0318 66.5559 36.0586 67.6967L36.0674 67.7006C36.7102 67.461 37.2013 67.3057 37.6611 67.0971C38.2148 66.8485 38.7511 66.5511 39.2959 66.2758C40.899 65.4679 42.5649 64.7844 44.0117 63.688C44.7082 63.1598 45.3513 62.5962 46.0166 61.8462H45.5615C45.4499 61.8462 45.3332 61.8855 45.2304 61.8589ZM24.8945 48.728C24.7204 49.0031 24.6172 49.1319 24.5547 49.2739C23.934 50.721 23.3138 52.1645 22.7109 53.6206C22.4073 54.3528 22.0853 55.0849 21.8486 55.8393C21.4066 57.2509 21.0185 58.6762 20.6211 60.101C20.1924 61.6192 19.7766 63.1376 19.3613 64.6557C19.2408 65.0995 19.1431 65.5524 19.0137 66.0805C19.2189 65.9874 19.3794 65.9427 19.5088 65.854C20.7591 65.0017 21.9962 64.1407 23.251 63.2973C23.635 63.0399 24.0639 62.8358 24.4658 62.6049C24.7069 62.4673 24.9436 62.3252 25.1758 62.1743C25.4481 61.9968 25.7026 61.7837 25.9883 61.6284C26.5688 61.3132 26.8723 60.572 26.7607 59.9106C26.5062 58.4236 26.2877 56.9275 26.0644 55.436C25.9483 54.6459 25.8771 53.8467 25.7431 53.061C25.6092 52.2753 25.4121 51.5029 25.2558 50.7173C25.1353 50.1091 25.0329 49.492 24.8945 48.7241V48.728ZM109.058 36.5434C109.866 36.2771 110.647 36.987 110.384 37.7905C110.102 38.6472 109.803 39.4995 109.41 40.3296C108.986 41.2173 108.397 42.0169 108.138 43.0112C107.874 44.0364 107.267 44.9726 106.869 45.9712C106.271 47.4759 105.704 48.9901 105.159 50.5171C104.909 51.2273 104.753 51.9693 104.543 52.6928C104.489 52.8746 104.373 53.034 104.297 53.2114C104.199 53.4378 104.082 53.6646 104.024 53.8999C103.623 55.6487 103.256 57.4021 102.823 59.1421C102.68 59.7058 102.792 60.3855 102.212 60.7983C102.181 60.8205 102.162 60.9048 102.176 60.9448C102.569 61.8636 101.904 62.454 101.479 63.0932C101.109 63.648 100.578 63.6837 100.051 63.2534C99.5652 62.8581 99.2399 62.3729 99.2158 61.7397V60.812L99.2197 60.8159C99.2777 60.1013 99.2734 59.2492 99.626 58.4282C99.8134 57.9933 99.7287 57.4471 99.916 57.0122C100.523 55.6051 100.515 54.0423 101.073 52.6352C101.48 51.6143 101.836 50.5884 102.02 49.5053C102.037 49.3988 102.06 49.2698 102.127 49.1899C102.792 48.3865 102.842 47.3701 103.145 46.438C103.355 45.7899 103.677 45.1727 103.967 44.5512C104.462 43.486 105.025 42.4517 105.449 41.3598C105.704 40.7117 106.258 40.2718 106.459 39.6059C106.736 38.6871 107.428 38.0119 107.973 37.2573C108.214 36.929 108.656 36.6766 109.058 36.5434ZM41.4306 53.4067C40.7474 53.491 40.0727 53.6872 39.3984 53.8559C38.9832 53.958 38.5457 54.0332 38.1797 54.2329C37.7868 54.4459 37.4073 54.6502 36.9609 54.7124C36.6216 54.7612 36.4957 55.005 36.4599 55.2934C36.3215 56.4609 36.175 57.6289 36.0722 58.7964C36.041 59.1648 36.1342 59.5421 36.1699 59.9194L36.376 59.977C36.684 59.7107 36.9565 59.3822 37.3047 59.1958C38.345 58.632 39.2515 57.9348 39.957 56.976C40.0686 56.8252 40.2298 56.6659 40.3994 56.6215C40.9976 56.4661 41.3186 55.9859 41.6133 55.5376C41.9972 54.9517 42.27 54.2952 42.6181 53.6118C42.1717 53.5274 41.7878 53.3624 41.4306 53.4067ZM74.5967 54.2065C73.2927 52.9058 71.6132 52.4305 69.501 53.2739C68.9964 54.7209 68.6034 56.1769 68.2685 57.8725V57.8774C69.1301 57.691 69.9072 57.7131 70.4297 57.3628C71.1173 56.9011 71.9082 56.8475 72.6181 56.5102C73.2969 56.1906 73.9716 55.9238 74.5254 55.3911C75.0251 54.912 75.0607 54.6679 74.5967 54.2065ZM52.2861 0.00924285H52.291C56.0642 -0.08834 53.7069 2.67263 55.7431 4.34616C56.5514 5.35374 57.4083 6.32188 58.2031 7.33834C59.4934 9.39344 57.6182 10.259 56.1982 8.84323C51.7728 4.22655 54.9298 4.94132 49.7051 5.04342C47.066 3.61407 49.7319 -0.212457 52.2861 0.00924285Z" fill="#1a1a1a"/>
</svg>
